<svg xmlns="http://www.w3.org/2000/svg" viewBox="1151.9 61.946 35.013 36">
  <defs>
    <style>
      .cls-1 {
        fill: #b4a98c;
      }
    </style>
  </defs>
  <g id="Group_3" data-name="Group 3" transform="translate(5)">
    <path id="Path_11" data-name="Path 11" class="cls-1" d="M17.507,36A17.768,17.768,0,0,1,0,18.023C0,8.122,7.845,0,17.507,0A17.779,17.779,0,0,1,35.013,18.023,17.768,17.768,0,0,1,17.507,36Zm0-34.631A16.454,16.454,0,0,0,1.33,18.023,16.454,16.454,0,0,0,17.507,34.677,16.454,16.454,0,0,0,33.684,18.023,16.454,16.454,0,0,0,17.507,1.369Z" transform="translate(1146.9 61.946)"/>
    <path id="Facebook_3_" class="cls-1" d="M37.066,36.233a.9.9,0,0,1-.886.913H32.013V30.666h2.127l.31-2.51H32.013v-1.6c0-.73.177-1.232,1.2-1.232H34.5V23.046a14.107,14.107,0,0,0-1.906-.091,3,3,0,0,0-3.147,3.331v1.871H27.315v2.51h2.127v6.479H21.686a.9.9,0,0,1-.886-.913V21.313a.9.9,0,0,1,.886-.913H36.179a.9.9,0,0,1,.886.913Z" transform="translate(1135.319 50.854)"/>
  </g>
</svg>
